<mxfile host="app.diagrams.net" modified="2021-05-31T16:35:10.384Z" agent="5.0 (Macintosh; Intel Mac OS X 10_15_5) AppleWebKit/537.36 (KHTML, like Gecko) Chrome/90.0.4430.212 Safari/537.36" etag="N0XArNeVA429Wz6J99OL" version="14.7.3" type="github">
  <diagram id="V18qkTAM0TuZ3KjaFQuu" name="Page-1">
    <mxGraphModel dx="1186" dy="719" grid="1" gridSize="10" guides="1" tooltips="1" connect="1" arrows="1" fold="1" page="1" pageScale="1" pageWidth="827" pageHeight="1169" math="0" shadow="0">
      <root>
        <mxCell id="0" />
        <mxCell id="1" parent="0" />
        <mxCell id="Tx8Kz096n_orJKgiok-M-1" value="" style="rounded=0;whiteSpace=wrap;html=1;" vertex="1" parent="1">
          <mxGeometry x="350" y="340" width="120" height="60" as="geometry" />
        </mxCell>
        <mxCell id="Tx8Kz096n_orJKgiok-M-2" value="&lt;font face=&quot;helvetica&quot; size=&quot;3&quot;&gt;&lt;b&gt;Phoenix Framwork&lt;/b&gt;&lt;/font&gt;" style="rounded=1;whiteSpace=wrap;html=1;" vertex="1" parent="1">
          <mxGeometry x="150" y="340" width="570" height="60" as="geometry" />
        </mxCell>
        <mxCell id="Tx8Kz096n_orJKgiok-M-3" value="&lt;b&gt;&lt;font style=&quot;font-size: 18px&quot;&gt;HTML&lt;/font&gt;&lt;/b&gt;" style="rounded=1;whiteSpace=wrap;html=1;" vertex="1" parent="1">
          <mxGeometry x="150" y="150" width="120" height="60" as="geometry" />
        </mxCell>
        <mxCell id="Tx8Kz096n_orJKgiok-M-4" value="&lt;font size=&quot;3&quot;&gt;&lt;b&gt;JSON&lt;/b&gt;&lt;/font&gt;" style="rounded=1;whiteSpace=wrap;html=1;" vertex="1" parent="1">
          <mxGeometry x="375" y="150" width="120" height="60" as="geometry" />
        </mxCell>
        <mxCell id="Tx8Kz096n_orJKgiok-M-7" value="&lt;font size=&quot;3&quot;&gt;&lt;b&gt;Web Sockets&lt;/b&gt;&lt;/font&gt;" style="rounded=1;whiteSpace=wrap;html=1;" vertex="1" parent="1">
          <mxGeometry x="600" y="150" width="120" height="60" as="geometry" />
        </mxCell>
        <mxCell id="Tx8Kz096n_orJKgiok-M-9" value="&lt;b style=&quot;font-family: &amp;#34;helvetica&amp;#34; ; font-size: medium&quot;&gt;DATABASE&lt;/b&gt;" style="shape=cylinder3;whiteSpace=wrap;html=1;boundedLbl=1;backgroundOutline=1;size=15;" vertex="1" parent="1">
          <mxGeometry x="355" y="510" width="160" height="130" as="geometry" />
        </mxCell>
        <mxCell id="Tx8Kz096n_orJKgiok-M-10" value="" style="shape=flexArrow;endArrow=classic;startArrow=classic;html=1;entryX=0.5;entryY=1;entryDx=0;entryDy=0;exitX=0.105;exitY=-0.083;exitDx=0;exitDy=0;exitPerimeter=0;" edge="1" parent="1" source="Tx8Kz096n_orJKgiok-M-2" target="Tx8Kz096n_orJKgiok-M-3">
          <mxGeometry width="100" height="100" relative="1" as="geometry">
            <mxPoint x="210" y="330" as="sourcePoint" />
            <mxPoint x="280" y="240" as="targetPoint" />
          </mxGeometry>
        </mxCell>
        <mxCell id="Tx8Kz096n_orJKgiok-M-11" value="" style="shape=flexArrow;endArrow=classic;startArrow=classic;html=1;entryX=0.5;entryY=1;entryDx=0;entryDy=0;exitX=0.105;exitY=-0.083;exitDx=0;exitDy=0;exitPerimeter=0;" edge="1" parent="1">
          <mxGeometry width="100" height="100" relative="1" as="geometry">
            <mxPoint x="434.4999999999999" y="335.02" as="sourcePoint" />
            <mxPoint x="434.65" y="210" as="targetPoint" />
          </mxGeometry>
        </mxCell>
        <mxCell id="Tx8Kz096n_orJKgiok-M-14" value="" style="shape=flexArrow;endArrow=classic;startArrow=classic;html=1;entryX=0.5;entryY=1;entryDx=0;entryDy=0;exitX=0.105;exitY=-0.083;exitDx=0;exitDy=0;exitPerimeter=0;" edge="1" parent="1">
          <mxGeometry width="100" height="100" relative="1" as="geometry">
            <mxPoint x="670" y="335.02" as="sourcePoint" />
            <mxPoint x="670.1500000000001" y="210" as="targetPoint" />
          </mxGeometry>
        </mxCell>
        <mxCell id="Tx8Kz096n_orJKgiok-M-15" value="" style="shape=flexArrow;endArrow=classic;startArrow=classic;html=1;entryX=0.5;entryY=1;entryDx=0;entryDy=0;" edge="1" parent="1">
          <mxGeometry width="100" height="100" relative="1" as="geometry">
            <mxPoint x="435" y="510" as="sourcePoint" />
            <mxPoint x="434.6500000000001" y="400" as="targetPoint" />
          </mxGeometry>
        </mxCell>
      </root>
    </mxGraphModel>
  </diagram>
</mxfile>
